<svg xmlns="http://www.w3.org/2000/svg" width="100%"  viewBox="0 0 739 144">
    <g>
        <path d="M0 2v102.482c10.83-13.246 20.173-18.76 24.095-20.502.36-.16.376-.41.36-.5-.014-.091-.215-.376-.686-.371-1.928 0-5.916 1.106-8.516 2.068-.606.225-.706-.18-.455-.641.556-1.047 3.105-3.446 10.73-6.51 12.583-5.079 25.592-4.508 31.559-1.538 2.64 1.327 3.747 3.966 4.067 4.918.04.12 0 .185-.105.185-9.242-.1-13.405.366-16.165 1.207-.822.255-.902.866-.176 1.412 1.303 1.002 5.355 2.028 6.973 2.299.403.088.818-.079 1.047-.42.346-.396.782-.962 1.168-1.338.305-.295.455-.325 1.032-.365.856-.066 2.83-.096 4.568-.066 8.095.146 17.127 2.149 17.127 13.607-.062 3.283-.922 6.502-2.505 9.38-.5.811-1.352.776-1.302-.436.215-5.629-.691-7.937-9.598-7.937-4.508 0-11.617.646-14.813 2.148-1.182.556-1.297 1.572-.1 1.467 1.773-.15 8.726-.63 13.656-.63 3.256 0 5.82.325 6.747 1.622.22.315.266.906-.5.791-.76-.098-1.525-.145-2.29-.14-10.254 0-20.278 6.045-20.278 16.526C45.64 137.35 70.126 144 100.743 144c24.656 0 41.257-5.288 41.257-5.288V2H0zM739 31.41V16.33c0-5.897-3.167-9.063-8.177-9.063-2.394-.032-4.718.802-6.544 2.346l-.897-2.03-4.38.27v23.556h6.099V14.454c.826-1.135 2.47-1.8 4.008-1.8 2.505 0 3.838 1.055 3.838 3.676v15.08H739zM713.005 2.615C713.005.9 711.953 0 709.563 0s-3.477.94-3.477 2.616c0 1.915 1.132 2.576 3.477 2.576 2.345 0 3.442-.856 3.442-2.576m-.35 28.793V7.737l-6.219.27V31.41h6.219zm-13.028 0V.705l-6.143.27V31.41h6.143zm-19.22 0V19.791c0-3.861 2.35-6.117 5.511-6.117.876-.001 1.747.127 2.586.38l.39-5.967c-.84-.242-1.71-.36-2.585-.35-2.7 0-5.01 1.406-6.514 4.256h-.12l-.546-3.94-4.85.23v23.126h6.128zm-24.742-14.254c.275-3.441 1.413-4.811 4.349-4.811 2.545 0 4.113 1.33 4.189 4.811h-8.538zm5.671 14.684c2.659.038 5.296-.472 7.747-1.5l-.667-4.882c-2.02.784-4.17 1.182-6.338 1.176-4.074 0-6.013-1.5-6.303-5.437h13.819c.111-.946.163-1.898.155-2.85 0-7.503-3.718-11.004-9.785-11.004-7.125 0-10.447 4.411-10.447 11.954 0 8.287 3.637 12.578 11.82 12.578m-23.049-21.09c0 2.305-1.002 3.245-3.367 3.245h-5.482V7.652h5.342c2.465 0 3.507.825 3.507 3.131m.747 11.604c0 2.775-1.178 3.636-3.798 3.636h-5.838v-7.118h5.677c2.861 0 3.959 1 3.959 3.502m6.608.5c0-3.716-1.718-6.002-4.965-6.917v-.075c2.345-1 3.908-3.001 3.908-6.297 0-4.647-3.207-7.502-9.585-7.502h-11.94v29.298h12.095c7.396 0 10.487-3.236 10.487-8.502M606.11 7.752h-6.063v15.2c0 2.425-1.252 3.556-3.918 3.556-2.665 0-3.918-1.21-3.918-3.556V7.737h-6.033v15.32c0 5.621 3.247 8.782 9.981 8.782s9.981-3.04 9.981-8.782l-.03-15.305zm-24.777 4.216V7.752h-17.05l-.196 5.037h10.216l.035.08-1.879 2.46-8.688 11.844v4.251h17.773l.155-5.031h-10.883l-.04-.12 1.879-2.421 8.678-11.884zm-33.395 19.456V16.33c0-5.897-3.167-9.063-8.177-9.063-2.392-.03-4.714.802-6.54 2.346l-.901-2.03-4.38.27v23.556h6.129V14.454c.821-1.135 2.465-1.8 4.008-1.8 2.505 0 3.838 1.055 3.838 3.676v15.08l6.023.014zM509.3 17.17c.276-3.441 1.413-4.811 4.35-4.811 2.545 0 4.113 1.33 4.193 4.811h-8.543zm5.682 14.684c2.658.038 5.296-.472 7.747-1.5l-.662-4.882c-2.022.784-4.174 1.183-6.343 1.176-4.074 0-6.013-1.5-6.303-5.437h13.819c.111-.946.163-1.898.155-2.85 0-7.503-3.718-11.004-9.786-11.004-7.125 0-10.446 4.411-10.446 11.954 0 8.287 3.637 12.578 11.82 12.578M485.58 17.205c.276-3.441 1.408-4.811 4.35-4.811 2.545 0 4.113 1.33 4.188 4.811h-8.538zm5.682 14.684c2.659.038 5.296-.473 7.747-1.5l-.667-4.882c-2.02.784-4.17 1.183-6.338 1.176-4.074 0-6.013-1.5-6.303-5.437h13.814c.115-.946.169-1.898.16-2.85 0-7.503-3.718-11.004-9.785-11.004-7.125 0-10.447 4.411-10.447 11.954 0 8.287 3.637 12.578 11.82 12.578m-15.233-7.767c0-7.952-10.842-5.862-10.842-9.358 0-1.18 1.097-1.94 3.096-1.94 2.166.02 4.31.42 6.338 1.18l.501-4.926c-2.138-.859-4.423-1.297-6.729-1.29-6.108 0-9.019 3.045-9.019 7.241 0 8.063 11.024 5.932 11.024 9.623 0 1.37-1.003 2.32-3.448 2.32-2.354-.005-4.673-.565-6.769-1.635l-.626 4.952c2.303 1.154 4.859 1.718 7.435 1.64 6.419 0 9.02-3.16 9.02-7.807m-21.18-16.335h-6.063v15.2c0 2.425-1.253 3.556-3.913 3.556s-3.918-1.21-3.918-3.556V7.737h-6.028v15.32c0 5.621 3.247 8.782 9.98 8.782 6.735 0 9.977-3.04 9.977-8.782l-.035-15.235zm-56.209-5.711v29.298h5.828V16.525l-.04-3.161.08-.04 1.097 2.97 5.988 15.115h4.384l6.013-15.154 1.097-2.971.115.04-.08 3.166v14.92h6.013V2.11h-7.246l-6.85 17.11-1.096 2.931h-.11l-1.098-2.93-6.82-17.11h-7.275zM368.44 17.155c.27-3.441 1.408-4.811 4.344-4.811 2.545 0 4.114 1.33 4.194 4.811h-8.538zm5.677 14.684c2.658.038 5.295-.472 7.746-1.5l-.661-4.882c-2.023.784-4.174 1.183-6.344 1.176-4.068 0-6.012-1.5-6.303-5.437h13.82c.11-.946.162-1.898.155-2.85 0-7.503-3.718-11.004-9.786-11.004-7.125 0-10.447 4.411-10.447 11.954 0 8.287 3.638 12.578 11.82 12.578m-16.17-.43V16.33c0-5.702-2.935-9.063-7.94-9.063-2.152-.043-4.249.676-5.918 2.03l-.116-.074.076-3.126V.705l-6.063.31V31.41h6.063V14.454c.999-1.185 2.487-1.849 4.038-1.8 2.58 0 3.798 1.25 3.798 3.676v15.08l6.063.034zM333.207 8.788c-1.833-.66-3.765-.998-5.712-1-7.591 0-10.838 4.41-10.838 12.073 0 8.087 3.713 12.068 10.717 12.068 2.546 0 4.66-.5 6.068-1.365l-.43-4.701c-1.357.592-2.824.89-4.305.875-3.678 0-5.757-1.936-5.757-6.877 0-4.862 1.453-6.647 5.872-6.647 1.366.026 2.72.27 4.009.72l.376-5.146zm-21.49-6.172C311.715.9 310.662 0 308.272 0s-3.477.94-3.477 2.616c0 1.915 1.132 2.576 3.477 2.576 2.345 0 3.442-.856 3.442-2.576m-.35 28.793V7.737l-6.218.27V31.41h6.218zm-13.028 0V.705l-6.143.27V31.41h6.143zm-10.732-19.145V7.762h-5.286V2.111l-4.77.42-1.003 5.206h-2.936v4.502h2.66v12.003c0 4.426 2.31 7.157 7.046 7.157 1.385.026 2.763-.198 4.068-.66l-.35-4.406c-.61.18-1.243.27-1.88.27-1.878 0-2.82-.765-2.82-2.551V12.264h5.27zm-23.876 11.958c0 1.215-1.879 2.39-3.953 2.39s-3.372-.77-3.372-2.935c0-1.94 1.258-2.931 3.958-2.931 1.143-.022 2.28.147 3.367.5v2.976zm1.373 7.187h4.65V16.765c0-6.502-2.42-9.503-9.43-9.503-2.792-.036-5.563.497-8.142 1.566l.501 4.841c2.052-.897 4.275-1.337 6.514-1.29 3.252 0 4.51 1.095 4.51 3.5v1.366c-1.473-.447-3.006-.67-4.545-.66-5.402 0-8.448 3-8.448 7.377 0 4.926 2.851 7.462 7.356 7.462 2.7 0 4.97-1 6.418-2.69l.12.04.496 2.635zm-24.897-7.187c0 1.215-1.88 2.39-3.958 2.39-2.005 0-3.368-.77-3.368-2.935 0-1.94 1.253-2.931 3.959-2.931 1.142-.021 2.28.148 3.367.5v2.976zm1.368 7.187h4.655V16.765c0-6.502-2.426-9.503-9.43-9.503-2.793-.036-5.563.497-8.142 1.566l.5 4.841c2.052-.897 4.275-1.338 6.514-1.29 3.252 0 4.51 1.095 4.51 3.5v1.366c-1.473-.447-3.005-.67-4.545-.66-5.401 0-8.453 3-8.453 7.377 0 4.926 2.857 7.462 7.356 7.462 2.706 0 4.975-1 6.423-2.69l.12.04.492 2.635zM224.23 12.264V7.762h-5.28V2.111l-4.776.42-1.002 5.206h-2.931v4.502h2.65v12.003c0 4.426 2.305 7.157 7.015 7.157 1.387.025 2.766-.199 4.074-.66l-.356-4.406c-.61.18-1.243.27-1.879.27-1.879 0-2.816-.765-2.816-2.551V12.264h5.301zm-16.274 10.358c0-9.923-13.503-7.813-13.503-12.389 0-1.56.977-2.81 4.62-2.81 2.411.049 4.801.47 7.084 1.25l.822-5.547c-2.623-1-5.41-1.51-8.217-1.5-7.441 0-10.648 4-10.648 9.002 0 9.808 13.504 7.852 13.504 12.464 0 2.035-1.408 3.206-4.62 3.206-2.852-.026-5.651-.765-8.142-2.151L188 29.814c2.799 1.462 5.915 2.212 9.074 2.185 6.855 0 10.883-3.55 10.883-9.337M620.267 66.467l-3.57.183v21.844h3.57V66.467zm-313.139 0l-3.57.183v21.844h3.57V66.467zm-101.84 2.992c0 4.254-1.923 5.476-5.915 5.476h-5.522V64.062h5.522c4.107 0 5.914 1.37 5.914 5.422m3.947 0c0-6.023-2.932-8.685-9.86-8.685H190v27.72h3.836V78.11h5.522c7.004 0 9.86-2.957 9.86-8.65m17.663.843l.226-3.539c-.724-.203-1.473-.302-2.225-.296-3.047 0-5.522 1.849-6.888 4.998h-.075l-.301-4.702-2.857.187v21.544h3.57V77.533c0-4.653 2.826-7.517 6.326-7.517.752-.02 1.502.077 2.224.286m18.375 5.259h-11.251c.226-4.11 1.923-6.062 5.728-6.062 3.238 0 5.462 1.67 5.523 6.062m3.193 2.4c.04-.492.075-1.143.075-1.695 0-6.698-3.514-9.799-8.846-9.799-6.175 0-9.258 3.83-9.258 10.425 0 8.246 3.047 12.051 10.428 12.051 2.41.031 4.792-.528 6.928-1.627l-.417-2.957c-1.89.939-3.981 1.42-6.1 1.405-4.82 0-7.028-1.996-7.194-7.803h14.384zm22.858 3.293V66.467h-3.514v14.718c0 2.997-1.773 4.51-5.161 4.51-3.47 0-5.202-1.553-5.202-4.51V66.467h-3.514v14.787c0 4.845 2.822 7.65 8.695 7.65 5.874 0 8.736-2.77 8.736-7.65m25.866.241c0-6.008-8.279-6.989-8.279-8.872 0-1.528 4.895-3.386 4.895-7.063 0-2.922-2.786-5.249-6.818-5.249-5.648 0-8.77 3.317-8.77 9.508V94h3.514V69.479c0-4.116 1.732-6.156 5.16-6.156 2.15 0 3.515.985 3.515 2.331 0 2.957-5.312 4.697-5.312 7.393 0 3.426 8.475 4.042 8.475 8.557 0 2.464-2.224 3.682-5.347 3.682-1.354-.013-2.69-.305-3.92-.858l-.222 3.199c1.512.58 3.122.875 4.745.867 5.02 0 8.354-2.656 8.354-6.999m10.467-20.607c0-1.223-.753-1.888-2.294-1.888s-2.294.665-2.294 1.888c0 1.4.753 1.878 2.294 1.878s2.294-.587 2.294-1.878m9.83 11.499c0-1.77 1.693-2.888 4.368-2.888 2.001.022 3.98.413 5.834 1.153l.301-2.928c-1.904-.84-3.97-1.27-6.06-1.257-5.16 0-7.826 2.465-7.826 6.102 0 7.27 11.482 4.993 11.482 9.858 0 2.026-1.356 3.544-4.634 3.544-2.149 0-4.71-.65-6.401-1.878l-.447 2.987c1.727 1.217 4.212 1.848 6.883 1.848 5.522 0 7.907-2.77 7.907-6.826 0-7.522-11.406-5.136-11.406-9.73m19.354 5.121c0-5.58 1.807-7.827 6.662-7.827 1.572.017 3.124.352 4.558.986l.226-3.12c-1.75-.711-3.627-1.077-5.522-1.075-6.703 0-9.635 3.756-9.635 11.041 0 7.936 3.234 11.47 9.54 11.47 2.04.054 4.054-.471 5.798-1.514l-.261-2.853c-1.454.823-3.106 1.247-4.784 1.227-4.293 0-6.587-2.243-6.587-8.33m31.217 10.987h3.514v-14.59c0-5.027-2.67-7.832-7.565-7.832-2.348-.067-4.622.813-6.291 2.435l-.075-.035.035-2.957V59.1l-3.515.221v29.16h3.515V71.82c.908-1.405 2.942-2.514 5.276-2.514 3.464 0 5.086 1.627 5.086 4.584l.02 14.595zm23.757-12.934h-11.266c.226-4.11 1.923-6.062 5.723-6.062 3.244 0 5.463 1.67 5.523 6.062m3.198 2.4c.035-.492.075-1.143.075-1.695 0-6.698-3.514-9.799-8.846-9.799-6.175 0-9.263 3.83-9.263 10.425 0 8.246 3.048 12.051 10.428 12.051 2.411.032 4.793-.527 6.928-1.626l-.411-2.958c-1.89.938-3.982 1.42-6.1 1.405-4.82 0-7.029-1.996-7.195-7.802h14.384zm17.883-7.659l.226-3.539c-.721-.203-1.469-.302-2.22-.296-3.052 0-5.522 1.849-6.892 4.998h-.076l-.3-4.702-2.857.187v21.545h3.574V77.533c0-4.653 2.822-7.517 6.326-7.517.75-.019 1.5.078 2.22.286m39.802 18.192L442.37 73.895l9.75-13.12h-4.593l-8.66 11.72h-4.178v-11.72h-3.826v27.72h3.836V75.703h4.097l9.077 12.79h4.815zm21.492-7.24V66.467h-3.514v14.718c0 2.997-1.767 4.51-5.161 4.51-3.394 0-5.196-1.553-5.196-4.51V66.467h-3.515v14.787c0 4.845 2.822 7.65 8.696 7.65s8.736-2.77 8.736-7.65m7.38 7.24h3.574v-29.38l-3.574.221v29.16zm16.11-19.291h5.523v-2.736h-5.523v-5.693l-2.78.296-.679 5.397h-3.248v2.736h3.128v13.342c0 3.85 2.008 5.95 5.829 5.95 1.07.027 2.134-.16 3.127-.553l-.226-2.651c-.606.2-1.242.298-1.882.29-2.008 0-3.279-.906-3.279-3.144l.01-13.234zm27.709 12.05V66.468h-3.515v14.718c0 2.997-1.772 4.51-5.16 4.51-3.465 0-5.202-1.553-5.202-4.51V66.467h-3.514v14.787c0 4.845 2.821 7.65 8.695 7.65 5.874 0 8.736-2.77 8.736-7.65m18.786-10.952l.226-3.539c-.721-.203-1.468-.302-2.219-.296-3.052 0-5.522 1.849-6.893 4.998h-.075l-.296-4.702-2.862.187v21.544h3.575V77.533c0-4.653 2.821-7.517 6.325-7.517.75-.019 1.5.078 2.22.286m20.528 7.181c0 6.842-2.334 8.503-5.839 8.503-2.75 0-4.633-1.257-5.522-2.696V71.864c1.165-1.666 3.128-2.627 5.497-2.627 3.695 0 5.88 1.553 5.88 8.246m3.61-.074c0-8.35-3.31-11.336-8.536-11.336-2.39-.077-4.706.814-6.406 2.464l-.075-.039.04-2.957v-6.467l-3.514.222v29.198h2.37l.562-2.291.11-.035c1.396 1.7 3.73 2.736 6.527 2.736 5.688 0 8.961-3.214 8.961-11.495m19.284-1.848h-11.371c.225-4.11 1.922-6.062 5.728-6.062 3.238 0 5.462 1.67 5.522 6.062m3.194 2.4c.04-.492.075-1.143.075-1.695 0-6.698-3.515-9.799-8.846-9.799-6.175 0-9.258 3.83-9.258 10.425 0 8.246 3.042 12.051 10.427 12.051 2.41.032 4.79-.527 6.924-1.627l-.412-2.957c-1.89.939-3.982 1.42-6.1 1.405-4.82 0-7.029-1.996-7.194-7.803h14.384zm8.032-5.574c0-1.77 1.697-2.888 4.373-2.888 2.001.022 3.98.413 5.834 1.153l.301-2.928c-1.904-.84-3.971-1.27-6.06-1.257-5.16 0-7.831 2.465-7.831 6.102 0 7.27 11.486 4.993 11.486 9.858 0 2.026-1.355 3.544-4.634 3.544-2.148 0-4.709-.65-6.4-1.878l-.468 3.007c1.733 1.217 4.213 1.848 6.889 1.848 5.522 0 7.907-2.77 7.907-6.827 0-7.521-11.412-5.136-11.412-9.73m21.99-11.498c0-1.223-.753-1.888-2.294-1.888-1.542 0-2.295.665-2.295 1.888 0 1.4.753 1.878 2.295 1.878 1.541 0 2.294-.587 2.294-1.878m12.28 8.31h5.523v-2.736h-5.523v-5.693l-2.781.296-.678 5.397h-3.238v2.736h3.128v13.342c0 3.85 2.008 5.95 5.828 5.95 1.07.027 2.135-.16 3.128-.553l-.226-2.651c-.606.2-1.243.298-1.882.29-2.009 0-3.279-.906-3.279-3.144V69.203zm15.744 13.825l9.941-14.013v-2.548h-15.328l-.11 3.032h11.296l.035.073-1.767 2.366-9.98 14.048v2.508h15.965l.115-3.026h-11.899l-.04-.108 1.772-2.332z"/>
    </g>
</svg>
